# Blender v2.82 (sub 7) OBJ File: 'Skrayfish.blend'
# www.blender.org
mtllib BaseFish.mtl
o Fish_Plane.001
v -0.020181 0.740564 0.271169
v 0.037619 0.271162 0.029708
v -0.022782 0.849044 0.231937
v -0.021872 0.719818 0.082865
v -0.020181 0.565064 -0.042210
v 0.000368 0.019804 -0.231896
v -0.020181 0.375331 -0.122943
v 0.000368 0.030491 -0.243955
v -0.020181 0.194255 -0.262799
v 0.000368 0.034171 -0.254261
v -0.020181 0.034639 -0.320459
v 0.037619 0.009546 0.066155
v 0.000368 0.002921 -0.229750
v 0.000368 0.015235 -0.271984
v -0.020181 -0.067676 -0.341805
v 0.000368 -0.011537 -0.270957
v -0.020181 -0.206305 -0.270037
v 0.000368 -0.023777 -0.252968
v -0.015613 -0.236924 -0.141223
v 0.000368 -0.017925 -0.239768
v -0.020797 -0.434783 -0.145639
v -0.021872 -0.636175 0.011588
v -0.023014 -0.674002 0.075999
v 0.000368 -0.014428 -0.236975
v 0.037619 -0.227784 0.089907
v 0.000368 -0.007751 -0.231942
v 0.016422 0.014936 0.191416
v -0.031237 0.740564 0.271169
v -0.089037 0.271162 0.029708
v -0.028635 0.849044 0.231937
v -0.025709 0.376998 0.164526
v -0.029545 0.719818 0.082865
v -0.031237 0.565064 -0.042210
v -0.051785 0.019804 -0.231896
v -0.031236 0.375331 -0.122943
v -0.025709 0.159707 0.158166
v -0.051785 0.030491 -0.243955
v -0.031236 0.194255 -0.262799
v -0.051785 0.034171 -0.254261
v -0.025709 0.055428 0.109952
v -0.031236 0.034639 -0.320459
v -0.089037 0.009546 0.066155
v -0.051785 0.002921 -0.229750
v -0.025709 -0.032296 0.100633
v -0.051785 0.015235 -0.271984
v -0.031236 -0.067676 -0.341805
v -0.051785 -0.011537 -0.270957
v -0.031236 -0.206305 -0.270037
v -0.051785 -0.023777 -0.252968
v -0.035804 -0.236924 -0.141223
v -0.051785 -0.017925 -0.239768
v -0.025709 -0.293112 -0.042588
v -0.030620 -0.434783 -0.145639
v -0.029546 -0.636175 0.011588
v -0.028403 -0.674002 0.075999
v -0.051785 -0.014428 -0.236975
v -0.089037 -0.227784 0.089907
v -0.051785 -0.007751 -0.231942
v -0.025709 -0.158592 0.167196
v -0.025709 -0.361768 0.014856
v -0.067840 0.014936 0.191416
v -0.025709 -0.504078 0.085397
v -0.025709 -0.725982 0.285035
v -0.025709 -0.612037 0.323901
v -0.025709 0.194671 0.262076
v -0.025709 -0.167245 0.226994
v -0.025709 0.014322 0.269932
vt 0.000000 0.000000
vt 1.000000 1.000000
vt 0.000000 1.000000
vt 0.000000 1.000000
vt 0.000000 1.000000
vt 0.000000 0.000000
vt 0.000000 1.000000
vt 0.000000 0.000000
vt 1.000000 1.000000
vt 0.000000 1.000000
vt 0.000000 1.000000
vt 0.000000 1.000000
vt 0.000000 0.000000
vt 0.000000 0.000000
vt 0.000000 0.000000
vt 0.000000 0.000000
vt 0.000000 1.000000
vt 0.000000 1.000000
vt 0.000000 1.000000
vt 0.000000 1.000000
vt 0.000000 1.000000
vt 0.000000 1.000000
vt 0.000000 1.000000
vt 0.000000 1.000000
vt 0.000000 1.000000
vt 0.000000 1.000000
vt 0.000000 1.000000
vt 0.000000 1.000000
vt 0.000000 1.000000
vt 0.000000 1.000000
vt 0.000000 1.000000
vt 0.000000 1.000000
vt 0.000000 1.000000
vt 0.000000 1.000000
vt 0.000000 1.000000
vt 0.000000 1.000000
vt 0.000000 1.000000
vt 0.000000 1.000000
vt 0.000000 1.000000
vt 0.000000 0.000000
vt 0.000000 0.000000
vt 0.000000 0.000000
vt 0.000000 0.000000
vt 0.000000 0.000000
vt 0.000000 1.000000
vt 1.000000 1.000000
vt 0.000000 1.000000
vt 0.000000 1.000000
vt 0.000000 1.000000
vt 0.000000 1.000000
vt 1.000000 1.000000
vt 0.000000 1.000000
vt 0.000000 1.000000
vt 0.000000 0.000000
vt 0.000000 0.000000
vt 0.000000 1.000000
vt 0.000000 1.000000
vt 0.000000 1.000000
vt 0.000000 1.000000
vt 0.000000 1.000000
vt 0.000000 1.000000
vt 0.000000 1.000000
vt 0.000000 1.000000
vt 0.000000 1.000000
vt 0.000000 1.000000
vt 0.000000 1.000000
vt 0.000000 1.000000
vt 0.000000 1.000000
vt 0.000000 1.000000
vt 0.000000 1.000000
vt 0.000000 1.000000
vt 0.000000 0.000000
vn 0.9916 0.0644 0.1122
vn 0.9823 0.1444 -0.1192
vn 0.9737 0.1495 -0.1718
vn 0.8359 -0.1661 0.5231
vn 0.9527 0.1190 -0.2796
vn 0.9012 -0.0127 0.4333
vn 0.9604 0.1308 -0.2458
vn 0.9857 0.1089 -0.1286
vn 0.9324 -0.1517 0.3281
vn 0.6174 0.1085 0.7791
vn 0.9921 -0.0173 -0.1246
vn 0.5215 -0.0901 0.8485
vn 0.9479 0.1239 -0.2934
vn 0.9390 0.0535 -0.3399
vn 0.9790 -0.1041 -0.1750
vn 0.9937 -0.1004 -0.0495
vn 0.9988 -0.0252 -0.0414
vn 0.9993 -0.0256 -0.0260
vn 0.9999 -0.0115 0.0110
vn 0.9961 -0.0372 0.0798
vn 0.9204 -0.2711 -0.2818
vn 0.9923 -0.0107 -0.1234
vn 0.4297 0.0899 0.8985
vn 0.8464 0.2483 0.4712
vn 0.9149 -0.2590 -0.3096
vn 0.8946 -0.1985 -0.4005
vn 0.9478 -0.2134 -0.2372
vn 0.9836 -0.0582 0.1706
vn 0.8338 0.1803 0.5218
vn 0.8966 0.0468 -0.4404
vn 0.8957 0.3280 -0.3002
vn 0.9195 -0.2687 -0.2869
vn 0.8809 0.0206 0.4728
vn 0.8761 -0.1110 0.4692
vn -0.9916 0.0644 0.1122
vn -0.9823 0.1444 -0.1192
vn -0.9737 0.1495 -0.1718
vn -0.8359 -0.1661 0.5231
vn -0.9527 0.1190 -0.2796
vn -0.9012 -0.0127 0.4333
vn -0.9604 0.1308 -0.2458
vn -0.9857 0.1089 -0.1286
vn -0.9324 -0.1517 0.3281
vn -0.6174 0.1085 0.7791
vn -0.9921 -0.0173 -0.1246
vn -0.5215 -0.0901 0.8485
vn -0.9479 0.1239 -0.2934
vn -0.9390 0.0535 -0.3399
vn -0.9790 -0.1041 -0.1750
vn -0.9937 -0.1004 -0.0495
vn -0.9988 -0.0252 -0.0414
vn -0.9993 -0.0256 -0.0260
vn -0.9999 -0.0115 0.0110
vn -0.9961 -0.0372 0.0798
vn -0.9204 -0.2711 -0.2818
vn -0.9923 -0.0107 -0.1234
vn -0.4297 0.0899 0.8985
vn -0.8464 0.2483 0.4712
vn -0.9149 -0.2590 -0.3096
vn -0.8946 -0.1985 -0.4005
vn -0.9478 -0.2134 -0.2372
vn -0.9836 -0.0582 0.1706
vn -0.8338 0.1803 0.5218
vn -0.8966 0.0468 -0.4404
vn -0.8957 0.3280 -0.3002
vn -0.9195 -0.2687 -0.2869
vn -0.8809 0.0206 0.4728
vn -0.8761 -0.1110 0.4692
vn 0.0000 -0.2815 0.9596
vn 0.0000 0.3401 0.9404
vn 0.0000 0.7556 -0.6550
vn 0.0000 0.6286 -0.7777
vn 0.0000 0.3915 -0.9202
vn 0.0000 0.6113 -0.7914
vn 0.0000 0.3398 -0.9405
vn 0.0000 0.2042 -0.9789
vn 0.0000 -0.4597 -0.8881
vn 0.0000 -0.4782 -0.8783
vn 0.0000 -0.6154 -0.7882
vn 0.0000 -0.8623 -0.5064
vn 0.0000 0.4451 0.8955
vn -0.0000 0.6019 -0.7986
vn 0.0000 0.2012 -0.9795
vn 0.0000 -0.1261 -0.9920
vn 0.0000 -0.7484 -0.6632
vn 0.0000 -0.9417 -0.3363
vn 0.0000 -0.6833 0.7301
vn 0.0000 0.0383 0.9993
vn 0.0000 0.8268 0.5625
vn 0.0000 0.9142 -0.4053
vn 0.0000 0.6240 -0.7814
usemtl Material.002
s off
f 1/1/1 2/2/1 3/3/1
f 3/3/2 2/2/2 4/4/2
f 4/4/3 2/2/3 5/5/3
f 2/2/4 1/1/4 31/6/4
f 5/5/5 2/2/5 7/7/5
f 2/2/6 31/6/6 36/8/6
f 7/7/7 2/2/7 6/9/7 8/10/7
f 7/7/8 8/10/8 10/11/8 9/12/8
f 2/2/9 36/8/9 40/13/9
f 2/2/10 40/13/10 12/14/10
f 2/2/11 12/14/11 13/15/11 6/9/11
f 12/14/12 40/13/12 44/16/12
f 9/12/13 10/11/13 14/17/13 11/18/13
f 11/18/14 14/17/14 16/19/14 15/20/14
f 15/20/15 16/19/15 18/21/15 17/22/15
f 17/22/16 18/21/16 20/23/16 19/24/16
f 17/22/17 19/24/17 21/25/17
f 21/25/18 19/24/18 22/26/18
f 22/26/19 19/24/19 23/27/19
f 19/24/20 20/23/20 24/28/20 52/29/20
f 52/29/21 24/28/21 26/30/21 25/31/21
f 25/31/22 26/30/22 13/32/22 12/33/22
f 25/31/23 12/33/23 44/34/23
f 25/31/24 44/34/24 59/35/24
f 52/29/25 25/31/25 60/36/25
f 60/36/26 25/31/26 62/37/26
f 62/37/27 25/31/27 63/38/27
f 63/38/28 25/31/28 64/39/28
f 64/39/29 25/31/29 59/35/29
f 44/16/30 40/13/30 27/40/30
f 27/40/31 40/13/31 65/41/31
f 44/16/32 27/40/32 66/42/32
f 27/40/33 65/41/33 67/43/33
f 66/42/34 27/40/34 67/43/34
f 28/44/35 30/45/35 29/46/35
f 30/45/36 32/47/36 29/46/36
f 32/47/37 33/48/37 29/46/37
f 29/46/38 31/6/38 28/44/38
f 33/48/39 35/49/39 29/46/39
f 29/46/40 36/8/40 31/6/40
f 35/49/41 37/50/41 34/51/41 29/46/41
f 35/49/42 38/52/42 39/53/42 37/50/42
f 29/46/43 40/13/43 36/8/43
f 29/46/44 42/54/44 40/13/44
f 29/46/45 34/51/45 43/55/45 42/54/45
f 42/54/46 44/16/46 40/13/46
f 38/52/47 41/56/47 45/57/47 39/53/47
f 41/56/48 46/58/48 47/59/48 45/57/48
f 46/58/49 48/60/49 49/61/49 47/59/49
f 48/60/50 50/62/50 51/63/50 49/61/50
f 48/60/51 53/64/51 50/62/51
f 53/64/52 54/65/52 50/62/52
f 54/65/53 55/66/53 50/62/53
f 50/62/54 52/29/54 56/67/54 51/63/54
f 52/29/55 57/68/55 58/69/55 56/67/55
f 57/68/56 42/70/56 43/71/56 58/69/56
f 57/68/57 44/34/57 42/70/57
f 57/68/58 59/35/58 44/34/58
f 52/29/59 60/36/59 57/68/59
f 60/36/60 62/37/60 57/68/60
f 62/37/61 63/38/61 57/68/61
f 63/38/62 64/39/62 57/68/62
f 64/39/63 59/35/63 57/68/63
f 44/16/64 61/72/64 40/13/64
f 61/72/65 65/41/65 40/13/65
f 44/16/66 66/42/66 61/72/66
f 61/72/67 67/43/67 65/41/67
f 66/42/68 67/43/68 61/72/68
f 31/6/69 1/1/69 28/44/69
f 1/1/70 3/3/70 30/45/70 28/44/70
f 3/3/71 4/4/71 32/47/71 30/45/71
f 4/4/72 5/5/72 33/48/72 32/47/72
f 5/5/73 7/7/73 35/49/73 33/48/73
f 7/7/74 9/12/74 38/52/74 35/49/74
f 9/12/75 11/18/75 41/56/75 38/52/75
f 11/18/76 15/20/76 46/58/76 41/56/76
f 15/20/77 17/22/77 48/60/77 46/58/77
f 17/22/78 21/25/78 53/64/78 48/60/78
f 21/25/79 22/26/79 54/65/79 53/64/79
f 22/26/80 23/27/80 55/66/80 54/65/80
f 23/27/81 19/24/81 50/62/81 55/66/81
f 26/30/82 24/28/82 56/67/82 58/69/82
f 13/32/83 26/30/83 58/69/83 43/71/83
f 6/9/84 13/32/84 43/55/84 34/51/84
f 8/10/85 6/9/85 34/51/85 37/50/85
f 10/11/86 8/10/86 37/50/86 39/53/86
f 14/17/87 10/11/87 39/53/87 45/57/87
f 16/19/88 14/17/88 45/57/88 47/59/88
f 18/21/89 16/19/89 47/59/89 49/61/89
f 20/23/90 18/21/90 49/61/90 51/63/90
f 24/28/91 20/23/91 51/63/91 56/67/91
